<?xml version="1.0" encoding="iso-8859-1"?>
<!-- Generator: Adobe Illustrator 18.0.0, SVG Export Plug-In . SVG Version: 6.00 Build 0)  -->
<!DOCTYPE svg PUBLIC "-//W3C//DTD SVG 1.1//EN" "http://www.w3.org/Graphics/SVG/1.1/DTD/svg11.dtd">
<svg version="1.1" id="Capa_1" xmlns="http://www.w3.org/2000/svg" xmlns:xlink="http://www.w3.org/1999/xlink" x="0px" y="0px"
	 viewBox="0 0 62.635 62.635" style="enable-background:new 0 0 62.635 62.635;" xml:space="preserve">
<path d="M55.228,8.237H7.407C3.323,8.237,0,11.56,0,15.644v31.347c0,4.084,3.323,7.407,7.407,7.407h47.821
	c4.084,0,7.407-3.323,7.407-7.407V15.644C62.635,11.56,59.312,8.237,55.228,8.237z M60.635,46.991c0,2.981-2.425,5.407-5.407,5.407
	H7.407C4.425,52.397,2,49.972,2,46.991V15.644c0-2.981,2.425-5.407,5.407-5.407h47.821c2.981,0,5.407,2.425,5.407,5.407V46.991z
	 M56.496,15.313c0.391,0.391,0.391,1.023,0,1.414L36.095,37.128c-1.317,1.317-3.047,1.976-4.778,1.976s-3.46-0.659-4.778-1.976
	L6.139,16.727c-0.391-0.391-0.391-1.023,0-1.414s1.023-0.391,1.414,0l20.401,20.401c1.855,1.855,4.873,1.854,6.728,0l20.401-20.401
	C55.473,14.922,56.105,14.922,56.496,15.313z"/>
<g>
</g>
<g>
</g>
<g>
</g>
<g>
</g>
<g>
</g>
<g>
</g>
<g>
</g>
<g>
</g>
<g>
</g>
<g>
</g>
<g>
</g>
<g>
</g>
<g>
</g>
<g>
</g>
<g>
</g>
</svg>
